#!OML:ASF I:\Actors\actors\Patient Classification 2\Patient 1\Session 1\actor1.ASF
:FULLY-SPECIFIED
:DEGREES
605
root -0.615092 16.9479 7.05194 -12.4482 1.04518 -5.46971
lowerback 4.85591 -0.267858 -1.86401
upperback -6.06488 -0.463694 0.830332
thorax -9.11217 -0.0664427 1.98436
lowerneck -35.0786 -3.04329 -2.40879
upperneck 19.1332 -3.21691 0.907025
head 11.9908 -1.48033 0.103332
rclavicle -4.17448e-015 -3.18055e-015
rhumerus 9.7346 -33.2279 -22.6514
rradius 92.8072
rwrist 10.6742
rhand -53.8642 -54.9037
rfingers 7.12502
rthumb -26.2933 -83.1015
lclavicle -4.17448e-015 -3.18055e-015
lhumerus 24.2516 23.2336 36.847
lradius 82.2703
lwrist -4.87901
lhand -37.7438 -66.9206
lfingers 7.12502
lthumb -10.7922 -37.2179
rfemur 46.0552 -1.07291 19.6299
rtibia -35.0279
rfoot -2.33281 -19.3561
rtoes -13.5255
lfemur 47.6311 4.01194 -10.6216
ltibia -43.7607
lfoot 10.2653 10.488
ltoes -19.4598
606
root -0.610142 16.9513 7.05212 -12.4696 1.02219 -5.43082
lowerback 4.91519 -0.24851 -1.87749
upperback -6.08226 -0.44111 0.817857
thorax -9.16762 -0.0541157 1.97671
lowerneck -35.3353 -3.09843 -2.43005
upperneck 19.0783 -3.27831 0.930917
head 12.0125 -1.50389 0.101848
rclavicle 2.98177e-015 -7.95139e-015
rhumerus 9.8711 -33.2761 -22.5344
rradius 92.6589
rwrist 10.5503
rhand -53.8772 -55.1125
rfingers 7.12502
rthumb -26.3057 -83.3084
lclavicle 2.98177e-015 -7.95139e-015
lhumerus 24.7285 23.3152 37.2646
lradius 82.078
lwrist -4.92482
lhand -37.9006 -66.7858
lfingers 7.12502
lthumb -10.9434 -37.091
rfemur 46.0174 -1.00097 19.5968
rtibia -34.9162
rfoot -2.42811 -19.3853
rtoes -13.3803
lfemur 47.6067 4.03476 -10.6744
ltibia -43.6432
lfoot 10.2105 10.4924
ltoes -19.4423
607
root -0.606906 16.9554 7.05488 -12.4727 1.00146 -5.41489
lowerback 4.93541 -0.250539 -1.91284
upperback -6.10238 -0.446321 0.83379
thorax -9.20138 -0.0529699 2.01459
lowerneck -35.6138 -3.1264 -2.46249
upperneck 19.0529 -3.29784 0.959215
head 12.0488 -1.50895 0.111644
rclavicle -9.93923e-015 8.74653e-015
rhumerus 10.0159 -33.3424 -22.4448
rradius 92.4863
rwrist 10.5002
rhand -53.7925 -55.0722
rfingers 7.12502
rthumb -26.2246 -83.2802
lclavicle -9.93923e-015 8.74653e-015
lhumerus 25.1603 23.5299 37.7849
lradius 81.9627
lwrist -4.99619
lhand -37.8785 -66.7866
lfingers 7.12502
lthumb -10.9221 -37.0906
rfemur 45.9644 -0.956502 19.5844
rtibia -34.7998
rfoot -2.49107 -19.3919
rtoes -13.4818
lfemur 47.569 4.1011 -10.6784
ltibia -43.5537
lfoot 10.1895 10.4165
ltoes -19.6067
608
root -0.602874 16.9589 7.05873 -12.4712 0.981693 -5.403
lowerback 4.95347 -0.252291 -1.9291
upperback -6.12732 -0.448076 0.865421
thorax -9.2393 -0.0506733 2.05805
lowerneck -35.8951 -3.13722 -2.49968
upperneck 19.0257 -3.28008 0.948559
head 12.0834 -1.50372 0.114495
rclavicle 2.3059e-014 -1.59028e-015
rhumerus 10.0843 -33.3718 -22.2616
rradius 92.2263
rwrist 10.3608
rhand -53.8003 -55.0416
rfingers 7.12502
rthumb -26.2322 -83.2485
lclavicle 2.3059e-014 -1.59028e-015
lhumerus 25.6467 23.8269 38.4381
lradius 81.8415
lwrist -5.02474
lhand -37.7418 -66.7359
lfingers 7.12502
lthumb -10.7902 -37.033
rfemur 45.9094 -0.96875 19.541
rtibia -34.6769
rfoot -2.54653 -19.3325
rtoes -13.865
lfemur 47.5483 4.16991 -10.6785
ltibia -43.4815
lfoot 10.1662 10.3424
ltoes -19.8578
609
root -0.598541 16.9617 7.06314 -12.4757 0.940514 -5.40978
lowerback 4.9986 -0.241528 -1.90201
upperback -6.16378 -0.430236 0.887572
thorax -9.30714 -0.0416489 2.06502
lowerneck -36.1572 -3.14561 -2.51155
upperneck 18.9756 -3.2726 0.94056
head 12.1053 -1.5008 0.112726
rclavicle -5.56597e-015 -7.95139e-015
rhumerus 9.98172 -33.3844 -21.9139
rradius 91.7903
rwrist 10.1527
rhand -53.7766 -55.1629
rfingers 7.12502
rthumb -26.2095 -83.3732
lclavicle -5.56597e-015 -7.95139e-015
lhumerus 26.1438 24.0968 39.1126
lradius 81.7469
lwrist -4.9721
lhand -37.7811 -66.4747
lfingers 7.12502
lthumb -10.8281 -36.7738
rfemur 45.8571 -0.98732 19.5042
rtibia -34.5517
rfoot -2.63402 -19.2562
rtoes -14.076
lfemur 47.5489 4.23587 -10.6569
ltibia -43.4106
lfoot 10.101 10.3103
ltoes -20.0583
